<svg viewBox="100 50 440 300" data-background-color="#ffffff00" preserveAspectRatio="xMidYMid meet" height="400" width="640" xmlns="http://www.w3.org/2000/svg" xmlns:xlink="http://www.w3.org/1999/xlink"><rect width="440" height="300" x="100" y="50" opacity="1" fill="#ffffff00" data-fill-palette-color="background" id="background"></rect><g id="tight-bounds" transform="matrix(1,0,0,1,122.24000000000001,76.4)"><svg viewBox="0 0 395.52 247.2" height="247.2" width="395.52"><g><svg></svg></g><g><svg viewBox="0 0 395.52 247.2" height="247.2" width="395.52"><g transform="matrix(1,0,0,1,39.55199999999999,97.25599272065514)"><svg viewBox="0 0 316.416 52.688014558689716" height="52.688014558689716" width="316.416"><g><svg viewBox="0 0 316.416 52.688014558689716" height="52.688014558689716" width="316.416"><g><svg viewBox="0 0 316.416 52.688014558689716" height="52.688014558689716" width="316.416"><g><svg viewBox="0 0 316.416 52.688014558689716" height="52.688014558689716" width="316.416"><g><svg viewBox="0 0 316.416 52.688014558689716" height="52.688014558689716" width="316.416"><g transform="matrix(1,0,0,1,0,0)"><svg width="316.416" viewBox="3.549999952316284 -36 219.77999877929688 36.599998474121094" height="52.688014558689716" data-palette-color="#a437db"><path d="M14.9 0L3.55 0 3.55-35 14.9-35Q21.05-35 25.03-32.85 29-30.7 30.93-26.78 32.85-22.85 32.85-17.45L32.85-17.45Q32.85-12.1 30.93-8.18 29-4.25 25.03-2.13 21.05 0 14.9 0L14.9 0ZM8.85-30.55L8.85-4.5 14.7-4.5Q19.45-4.5 22.23-6.05 25-7.6 26.23-10.5 27.45-13.4 27.45-17.45L27.45-17.45Q27.45-21.5 26.23-24.45 25-27.4 22.23-28.98 19.45-30.55 14.7-30.55L14.7-30.55 8.85-30.55ZM50.1 0.6L50.1 0.6Q46.45 0.6 43.62-1.03 40.8-2.65 39.2-5.55 37.6-8.45 37.6-12.3L37.6-12.3Q37.6-16.2 39.17-19.15 40.75-22.1 43.57-23.75 46.4-25.4 50.15-25.4L50.15-25.4Q53.8-25.4 56.5-23.78 59.2-22.15 60.7-19.45 62.2-16.75 62.2-13.5L62.2-13.5Q62.2-13 62.17-12.43 62.15-11.85 62.1-11.15L62.1-11.15 42.8-11.15Q43.05-7.55 45.17-5.68 47.3-3.8 50.1-3.8L50.1-3.8Q52.35-3.8 53.87-4.83 55.4-5.85 56.15-7.6L56.15-7.6 61.45-7.6Q60.45-4.1 57.47-1.75 54.5 0.6 50.1 0.6ZM50.1-21.05L50.1-21.05Q47.45-21.05 45.4-19.48 43.35-17.9 42.9-14.75L42.9-14.75 56.9-14.75Q56.75-17.65 54.85-19.35 52.95-21.05 50.1-21.05ZM73 0L67.69 0 67.69-36 73-36 73 0ZM82.69-29.5L82.69-29.5Q81.19-29.5 80.22-30.43 79.24-31.35 79.24-32.75L79.24-32.75Q79.24-34.15 80.22-35.08 81.19-36 82.69-36L82.69-36Q84.19-36 85.17-35.08 86.14-34.15 86.14-32.75L86.14-32.75Q86.14-31.35 85.17-30.43 84.19-29.5 82.69-29.5ZM85.34 0L80.04 0 80.04-24.8 85.34-24.8 85.34 0ZM105.59 0L99.29 0 89.99-24.8 95.54-24.8 102.44-5.05 109.34-24.8 114.84-24.8 105.59 0ZM129.54 0.6L129.54 0.6Q125.89 0.6 123.06-1.03 120.24-2.65 118.64-5.55 117.04-8.45 117.04-12.3L117.04-12.3Q117.04-16.2 118.61-19.15 120.19-22.1 123.01-23.75 125.84-25.4 129.59-25.4L129.59-25.4Q133.24-25.4 135.94-23.78 138.64-22.15 140.14-19.45 141.64-16.75 141.64-13.5L141.64-13.5Q141.64-13 141.61-12.43 141.59-11.85 141.54-11.15L141.54-11.15 122.24-11.15Q122.49-7.55 124.61-5.68 126.74-3.8 129.54-3.8L129.54-3.8Q131.79-3.8 133.31-4.83 134.84-5.85 135.59-7.6L135.59-7.6 140.89-7.6Q139.89-4.1 136.91-1.75 133.94 0.6 129.54 0.6ZM129.54-21.05L129.54-21.05Q126.89-21.05 124.84-19.48 122.79-17.9 122.34-14.75L122.34-14.75 136.34-14.75Q136.19-17.65 134.29-19.35 132.39-21.05 129.54-21.05ZM152.44 0L147.14 0 147.14-24.8 151.89-24.8 152.34-20.1Q153.64-22.55 155.96-23.98 158.29-25.4 161.59-25.4L161.59-25.4 161.59-19.85 160.14-19.85Q157.94-19.85 156.21-19.13 154.49-18.4 153.46-16.68 152.44-14.95 152.44-11.9L152.44-11.9 152.44 0ZM179.43 0.6L179.43 0.6Q175.68 0.6 172.66-0.88 169.63-2.35 167.86-5.4 166.08-8.45 166.08-13.15L166.08-13.15 166.08-35 171.38-35 171.38-13.1Q171.38-8.5 173.58-6.35 175.78-4.2 179.53-4.2L179.53-4.2Q183.23-4.2 185.43-6.35 187.63-8.5 187.63-13.1L187.63-13.1 187.63-35 192.93-35 192.93-13.15Q192.93-8.45 191.11-5.4 189.28-2.35 186.21-0.88 183.13 0.6 179.43 0.6ZM211.28 0.6L211.28 0.6Q207.43 0.6 204.53-0.75 201.63-2.1 200.01-4.6 198.38-7.1 198.33-10.55L198.33-10.55 203.93-10.55Q203.98-7.75 205.88-5.8 207.78-3.85 211.23-3.85L211.23-3.85Q214.28-3.85 216.01-5.33 217.73-6.8 217.73-9.1L217.73-9.1Q217.73-10.95 216.91-12.1 216.08-13.25 214.66-14 213.23-14.75 211.38-15.35 209.53-15.95 207.48-16.65L207.48-16.65Q203.43-18 201.41-20.15 199.38-22.3 199.38-25.8L199.38-25.8Q199.33-28.75 200.76-30.95 202.18-33.15 204.76-34.38 207.33-35.6 210.78-35.6L210.78-35.6Q214.18-35.6 216.76-34.35 219.33-33.1 220.78-30.88 222.23-28.65 222.28-25.7L222.28-25.7 216.68-25.7Q216.68-27.05 215.98-28.28 215.28-29.5 213.93-30.3 212.58-31.1 210.63-31.1L210.63-31.1Q208.13-31.15 206.51-29.85 204.88-28.55 204.88-26.25L204.88-26.25Q204.88-24.2 206.08-23.1 207.28-22 209.38-21.28 211.48-20.55 214.18-19.6L214.18-19.6Q216.78-18.75 218.83-17.55 220.88-16.35 222.11-14.4 223.33-12.45 223.33-9.45L223.33-9.45Q223.33-6.8 221.98-4.53 220.63-2.25 217.93-0.83 215.23 0.6 211.28 0.6Z" opacity="1" transform="matrix(1,0,0,1,0,0)" fill="#a437db" class="undefined-text-0" data-fill-palette-color="primary" id="text-0"></path></svg></g></svg></g></svg></g></svg></g></svg></g></svg></g><g><path xmlns="http://www.w3.org/2000/svg" d="M0 247.2v-247.2h395.52v247.2zM390.769 242.449v-237.698h-386.018v237.698z" fill="#a437db" fill-rule="nonzero" stroke="none" stroke-width="1" stroke-linecap="butt" stroke-linejoin="miter" stroke-miterlimit="10" stroke-dasharray="" stroke-dashoffset="0" font-family="none" font-weight="none" font-size="none" text-anchor="none" style="mix-blend-mode: normal" data-fill-palette-color="tertiary"></path></g></svg></g><defs></defs></svg><rect width="395.52" height="247.2" fill="none" stroke="none" visibility="hidden"></rect></g></svg>